<?xml version="1.0" standalone="no"?>
<!DOCTYPE svg PUBLIC "-//W3C//DTD SVG 20010904//EN"
 "http://www.w3.org/TR/2001/REC-SVG-20010904/DTD/svg10.dtd">
<svg version="1.0" xmlns="http://www.w3.org/2000/svg"
 width="473.000000pt" height="473.000000pt" viewBox="0 0 473.000000 473.000000"
 preserveAspectRatio="xMidYMid meet">
<metadata>
Created by potrace 1.14, written by Peter Selinger 2001-2017
</metadata>
<g transform="translate(0.000000,473.000000) scale(0.100000,-0.100000)"
fill="#000000" stroke="none">
<path d="M1384 4694 l-39 -35 43 32 c38 30 48 39 39 39 -2 0 -21 -16 -43 -36z"/>
<path d="M3372 4671 c69 -55 151 -139 226 -227 18 -21 13 -12 -12 21 -62 83
-253 265 -278 265 -5 0 24 -27 64 -59z"/>
<path d="M1249 4575 c-113 -115 -114 -120 -1 -10 51 49 92 91 92 92 0 8 -13
-4 -91 -82z"/>
<path d="M205 4571 c-3 -5 -1 -12 5 -16 5 -3 10 1 10 9 0 18 -6 21 -15 7z"/>
<path d="M4278 4430 c3 -99 6 -120 18 -120 13 0 15 19 12 120 -2 98 -6 120
-18 120 -13 0 -15 -19 -12 -120z"/>
<path d="M4355 4501 c0 -40 3 -47 13 -39 15 13 12 80 -3 85 -6 2 -10 -18 -10
-46z"/>
<path d="M4507 4478 c1 -40 2 -94 3 -120 0 -36 4 -48 15 -48 12 0 15 15 15 75
0 60 3 76 18 84 16 10 16 10 0 11 -13 0 -18 8 -18 30 0 27 3 30 30 30 28 0 30
-3 30 -35 0 -41 15 -47 24 -9 10 39 -9 54 -68 54 l-51 0 2 -72z"/>
<path d="M155 4410 c-1 -93 2 -110 15 -110 12 0 15 11 13 58 -1 31 -2 81 -3
110 0 35 -4 52 -12 52 -10 0 -13 -29 -13 -110z"/>
<path d="M254 4408 c1 -80 5 -113 14 -116 9 -3 12 24 12 112 0 90 -3 116 -13
116 -11 0 -13 -25 -13 -112z"/>
<path d="M4446 4478 c-3 -13 -6 -52 -6 -88 1 -57 2 -63 14 -47 10 12 12 38 9
85 -5 74 -8 83 -17 50z"/>
<path d="M1109 4418 c-23 -29 -57 -77 -76 -107 -41 -65 -137 -263 -147 -306
-11 -46 -2 -28 33 60 48 120 158 307 225 383 11 12 17 22 13 22 -4 0 -25 -24
-48 -52z"/>
<path d="M4368 4380 c3 -26 0 -40 -8 -40 -6 0 -8 -5 -5 -10 5 -8 11 -7 21 1
17 14 16 80 -1 86 -7 2 -9 -12 -7 -37z"/>
<path d="M2221 4399 c-180 -21 -370 -101 -477 -201 -74 -69 -152 -187 -194
-292 -40 -99 -40 -109 2 -92 38 16 48 36 19 36 -26 0 -28 26 -3 39 9 5 43 14
74 21 46 10 56 16 47 26 -17 21 47 129 121 205 96 98 210 151 395 184 99 18
115 18 115 2 0 -8 -38 -20 -107 -33 -152 -29 -223 -63 -304 -143 -36 -36 -80
-88 -99 -116 -18 -27 -42 -63 -52 -78 l-19 -28 28 7 c38 9 43 13 43 30 0 8 18
41 39 72 100 146 239 226 413 239 84 6 86 9 59 76 -6 16 -11 35 -11 43 0 8 -3
13 -7 13 -5 -1 -41 -5 -82 -10z"/>
<path d="M2435 4383 c4 -10 10 -28 12 -40 3 -13 8 -21 12 -19 14 9 120 -18
176 -45 43 -20 64 -38 76 -61 12 -25 21 -32 39 -30 29 5 132 -99 151 -152 10
-28 19 -36 37 -36 29 0 27 6 -21 81 -51 79 -143 157 -249 212 -90 46 -108 63
-33 31 43 -18 149 -81 184 -109 39 -32 110 -107 134 -142 12 -18 27 -33 33
-33 6 0 10 -10 10 -22 -1 -18 5 -22 38 -24 22 -2 45 -5 52 -8 13 -5 54 -77 54
-96 0 -12 -55 -13 -78 -1 -9 4 -36 11 -59 14 -41 5 -42 5 -28 -17 19 -29 62
-197 70 -271 3 -33 8 -75 11 -92 4 -27 2 -32 -11 -27 -8 4 -18 18 -21 33 -18
82 -37 122 -77 157 -38 35 -44 45 -62 128 -20 90 -21 91 -50 91 -17 0 -35 3
-41 7 -6 4 -38 8 -70 9 -32 1 -72 9 -89 18 l-30 16 39 5 c52 7 57 26 10 39
-48 13 -84 5 -84 -20 0 -13 -12 -21 -40 -29 -22 -6 -49 -20 -59 -31 -17 -18
-20 -19 -28 -5 -12 22 -95 32 -143 16 -23 -8 -53 -30 -76 -56 -26 -31 -45 -44
-63 -44 -40 -1 -102 -33 -144 -76 -21 -21 -52 -44 -70 -50 -26 -9 -39 -25 -70
-85 -21 -41 -52 -95 -68 -121 -19 -29 -34 -69 -39 -105 -5 -32 -16 -78 -25
-103 -10 -25 -18 -76 -20 -115 -1 -38 -8 -83 -15 -100 l-14 -30 -7 55 c-27
204 4 590 56 713 7 17 4 18 -31 12 -59 -10 -135 -33 -149 -45 -9 -8 -15 -8
-20 0 -3 5 -14 10 -23 9 -14 0 -13 -2 3 -9 17 -7 17 -9 3 -9 -10 -1 -20 -11
-23 -23 -40 -186 -43 -376 -9 -763 7 -83 51 -368 68 -439 8 -33 12 -65 9 -72
-2 -7 11 -23 30 -36 20 -13 38 -34 40 -48 12 -58 30 -300 23 -307 -4 -4 -16
-1 -28 6 -11 7 -36 22 -56 32 -203 115 -420 324 -542 524 -47 77 -130 248
-150 308 -6 21 -14 37 -16 35 -7 -8 18 -83 53 -163 127 -284 380 -566 639
-710 78 -44 81 -39 -76 -111 -240 -110 -424 -220 -595 -357 -95 -76 -222 -216
-231 -255 -4 -15 -22 -57 -40 -94 -113 -225 -201 -512 -274 -882 -17 -88 -42
-207 -55 -265 -14 -58 -27 -116 -30 -129 l-5 -22 723 0 724 0 41 57 c75 103
86 117 132 164 46 46 116 79 170 79 15 0 48 -6 75 -14 30 -9 53 -11 64 -6 12
7 92 46 202 98 4 2 9 -4 13 -13 7 -20 -26 -84 -52 -99 -10 -6 -41 -26 -68 -43
-27 -18 -66 -41 -86 -50 -38 -18 -44 -35 -16 -41 9 -2 56 15 104 37 51 23 93
36 98 31 5 -5 0 -25 -10 -46 -19 -37 -94 -91 -171 -123 -47 -19 -41 -31 17
-31 34 0 67 8 99 25 51 25 61 24 61 -7 0 -10 7 -18 15 -18 17 0 21 40 6 55 -6
6 -3 19 9 35 l20 25 0 -57 0 -58 34 0 c44 0 45 4 30 220 -7 91 -14 207 -17
258 -4 90 -4 92 17 87 11 -2 15 -2 9 1 -7 3 -13 15 -13 26 0 17 2 18 15 8 20
-16 32 -5 16 14 -8 10 -9 16 -1 21 15 9 17 -3 29 -205 7 -102 13 -198 15 -215
2 -16 7 -72 11 -123 l7 -92 184 0 184 0 -9 23 c-112 287 -117 303 -101 327 14
22 23 8 73 -110 101 -234 104 -240 137 -240 17 0 30 2 30 5 0 8 -31 100 -46
135 -9 19 -19 44 -23 55 -5 11 -24 58 -44 105 -44 105 -70 204 -62 230 9 29
34 24 41 -7 13 -51 76 -207 119 -293 23 -47 52 -118 64 -157 18 -58 27 -73 42
-73 10 0 19 4 19 10 0 23 -37 116 -100 250 -38 80 -70 154 -70 165 -4 38 0 53
15 59 11 4 26 -16 55 -74 22 -44 40 -86 40 -94 0 -8 29 -74 65 -147 36 -72 65
-140 65 -150 0 -11 7 -19 15 -19 27 0 4 65 -75 209 -40 73 -52 133 -29 147 15
9 30 -10 71 -86 19 -36 49 -88 66 -116 17 -28 37 -74 43 -102 l12 -52 539 0
c310 0 538 4 538 9 0 5 -9 37 -19 72 -10 35 -38 132 -61 214 -91 327 -297 893
-372 1021 -119 207 -449 509 -765 703 -57 35 -103 67 -103 71 0 4 -8 7 -17 6
-15 -1 -19 10 -24 59 -4 33 -7 92 -8 132 l-1 72 56 66 56 66 24 162 c71 481
58 893 -36 1199 -65 209 -202 384 -365 463 -86 42 -248 85 -322 85 -49 0 -54
-2 -48 -17z m115 -33 c20 -6 21 -8 5 -8 -11 0 -29 3 -40 8 -25 11 1 11 35 0z
m191 -153 c-10 -9 -11 -8 -5 6 3 10 9 15 12 12 3 -3 0 -11 -7 -18z m317 -325
c10 -10 16 -24 14 -30 -2 -7 2 -11 8 -10 7 2 15 -3 18 -11 3 -10 0 -11 -9 -5
-9 5 -8 -1 4 -19 10 -15 23 -53 28 -85 6 -31 13 -66 15 -77 17 -84 19 -135 7
-135 -17 0 -16 -10 3 -31 11 -13 17 -44 20 -106 2 -48 6 -133 9 -188 3 -65 1
-95 -5 -85 -5 8 -10 38 -10 66 0 35 -8 66 -26 100 -22 41 -26 62 -27 141 -1
51 -5 93 -9 93 -5 0 -8 5 -8 10 0 6 9 10 20 10 11 0 20 5 20 11 0 6 -8 9 -17
7 -16 -3 -20 13 -35 116 -10 66 -26 145 -37 177 -17 50 -18 69 -4 69 2 0 11
-8 21 -18z m-248 -12 c0 -5 -2 -10 -4 -10 -3 0 -8 5 -11 10 -3 6 -1 10 4 10 6
0 11 -4 11 -10z m-1116 -59 c4 -5 -1 -42 -9 -81 -46 -218 -40 -522 16 -887 12
-77 12 -85 -8 -130 -12 -26 -34 -76 -49 -110 -41 -96 -52 -80 -25 37 5 25 7
46 2 48 -4 1 -6 15 -3 30 2 15 -1 70 -8 122 -25 216 -30 294 -31 478 0 153 2
197 13 210 26 30 59 94 53 101 -4 3 -13 -2 -20 -12 -13 -18 -14 -18 -24 2 -10
17 -9 20 4 15 8 -4 15 -2 15 4 0 6 -4 12 -10 14 -6 2 -6 25 1 66 8 47 17 67
36 82 28 22 39 25 47 11z m-124 -66 c0 -8 -7 -15 -15 -15 -8 0 -15 7 -15 15 0
8 7 15 15 15 8 0 15 -7 15 -15z m960 -5 c22 -11 46 -20 55 -20 8 0 15 -5 15
-11 0 -5 4 -8 8 -5 5 3 25 -6 45 -19 20 -14 40 -25 45 -25 10 0 26 -29 24 -42
-1 -4 6 -4 14 -1 12 4 15 2 12 -8 -3 -8 9 -23 31 -36 20 -13 30 -23 22 -23
-10 0 -8 -7 7 -23 12 -13 22 -28 22 -33 0 -6 15 -28 34 -49 19 -21 36 -50 39
-64 3 -14 8 -35 11 -46 4 -11 -2 -3 -13 19 -11 22 -21 33 -25 27 -5 -8 -22 0
-52 21 -36 26 -57 33 -107 36 -57 4 -68 1 -140 -37 -94 -49 -122 -51 -216 -11
-82 35 -169 47 -228 31 -24 -7 -62 -30 -91 -56 -27 -25 -53 -45 -56 -45 -4 0
-6 18 -4 40 1 22 6 40 10 40 4 0 8 6 8 14 0 8 3 16 8 18 4 2 15 19 25 39 33
65 120 146 175 164 13 4 49 20 80 35 32 15 77 33 102 40 24 7 55 20 68 31 30
23 25 23 72 -1z m-925 -165 c0 -10 -5 -20 -11 -22 -7 -2 -11 7 -11 22 0 15 4
24 11 22 6 -2 11 -12 11 -22z m1165 -261 c14 -7 35 -22 47 -33 12 -12 35 -26
50 -33 22 -9 24 -12 11 -15 -10 -3 -31 3 -48 11 -16 9 -45 24 -62 33 -30 15
-88 20 -143 11 -11 -2 -28 -12 -37 -23 -14 -16 -17 -17 -18 -4 -1 61 120 94
200 53z m-445 -14 c22 -8 51 -38 44 -44 -2 -3 -28 2 -58 10 -65 16 -123 6
-181 -32 -21 -14 -49 -24 -61 -22 -21 3 -17 8 31 43 83 59 151 73 225 45z
m158 -3 c21 0 27 -4 22 -14 -3 -8 -8 -25 -11 -37 -5 -20 7 -205 22 -346 4 -42
2 -60 -10 -75 -14 -17 -17 -18 -25 -5 -5 8 -17 24 -25 35 -13 16 -15 17 -10 3
5 -14 1 -18 -19 -18 -14 0 -31 8 -36 18 -6 9 -11 12 -11 7 0 -20 31 -54 53
-57 13 -2 28 -15 37 -35 9 -19 23 -33 33 -33 13 0 17 -6 15 -22 -3 -21 -8 -23
-58 -22 -30 0 -64 3 -75 5 -16 3 -20 -1 -20 -21 0 -22 4 -24 50 -25 118 -2
135 -5 135 -20 0 -8 -6 -12 -14 -9 -8 3 -17 1 -21 -5 -8 -15 -61 -14 -85 1
-26 17 -62 -15 -58 -51 3 -22 8 -26 33 -24 86 7 133 7 164 -1 l33 -8 -6 163
c-4 90 -12 198 -17 240 -6 41 -12 116 -12 165 l-2 89 37 -1 c20 -1 44 -9 53
-18 11 -11 34 -16 71 -16 56 0 62 -4 41 -32 -18 -23 -57 -31 -92 -18 -29 11
-29 11 -10 -9 13 -15 30 -21 61 -21 48 0 67 18 79 75 14 61 16 65 41 65 68 0
90 -46 80 -167 -8 -112 -44 -241 -108 -393 -26 -63 -55 -118 -78 -150 -14 -19
-32 -48 -40 -65 -38 -75 -169 -116 -279 -88 -120 31 -213 104 -271 212 -7 14
-20 33 -29 42 -22 24 -81 143 -81 164 0 9 -7 31 -14 48 -22 48 -43 163 -47
259 -3 81 15 105 83 110 33 3 57 0 63 -7 35 -40 142 -67 172 -43 8 6 10 4 6
-10 -5 -22 -42 -42 -78 -42 -32 0 -32 -18 -1 -26 38 -9 66 5 83 42 9 19 20 34
25 34 4 0 8 7 8 15 0 19 43 30 68 16 18 -10 21 -23 24 -102 3 -85 1 -93 -19
-109 -28 -22 -30 -35 -4 -18 15 9 23 9 36 -2 16 -13 17 -4 10 140 -5 98 -13
165 -21 182 -19 37 -18 52 4 42 9 -4 30 -7 45 -7z m295 -74 c-3 -16 -54 -40
-64 -30 -3 2 3 18 13 35 14 25 21 29 36 20 10 -5 17 -17 15 -25z m-450 -15 c2
-12 -6 -21 -24 -28 -33 -13 -34 -12 -27 23 4 22 10 27 27 25 11 -2 22 -11 24
-20z m717 -171 c15 -51 12 -72 -16 -99 -11 -11 -15 -25 -11 -40 5 -20 3 -21
-10 -10 -9 7 -22 11 -29 10 -15 -3 -16 25 -4 90 6 35 25 44 25 12 0 -11 5 -20
11 -20 11 0 10 24 -6 110 -6 33 -6 34 10 15 8 -11 22 -41 30 -68z m-1131 11
c-16 -63 -18 -95 -4 -103 6 -3 14 4 19 17 9 22 9 22 15 -7 4 -16 11 -48 16
-69 10 -46 5 -60 -21 -53 -11 3 -26 -1 -34 -9 -13 -13 -14 -12 -9 14 5 22 0
38 -17 61 -27 36 -29 86 -5 125 9 14 23 37 31 51 23 37 25 31 9 -27z m-374 2
c0 -5 -5 -10 -11 -10 -5 0 -7 5 -4 10 3 6 8 10 11 10 2 0 4 -4 4 -10z m1019
-162 c0 -33 -2 -38 -9 -23 -12 28 -12 65 0 65 6 0 10 -19 9 -42z m-1001 -68
c0 -14 -6 0 -12 30 -7 30 -10 60 -7 65 6 11 20 -57 19 -95z m179 18 c-3 -8 -6
-5 -6 6 -1 11 2 17 5 13 3 -3 4 -12 1 -19z m1258 -47 c-3 -12 -11 -21 -16 -21
-10 0 -12 43 -2 54 12 12 25 -11 18 -33z m-1428 -48 c-3 -10 -5 -4 -5 12 0 17
2 24 5 18 2 -7 2 -21 0 -30z m361 -14 c-3 -33 -3 -34 -16 -11 -7 12 -10 32 -7
43 10 32 27 8 23 -32z m1212 31 c0 -5 -5 -10 -11 -10 -5 0 -7 5 -4 10 3 6 8
10 11 10 2 0 4 -4 4 -10z m-28 -70 c-24 -32 -28 -45 -10 -34 8 5 9 2 5 -10 -4
-10 4 -38 19 -68 l25 -50 -69 -102 c-108 -158 -236 -401 -258 -489 -3 -16 -22
-67 -40 -115 -19 -47 -32 -87 -31 -89 2 -2 64 115 137 259 73 145 135 265 138
268 3 3 2 -13 -2 -35 -4 -22 -13 -80 -21 -130 -8 -49 -29 -143 -48 -207 -18
-64 -30 -115 -26 -112 12 7 68 127 84 181 8 27 15 61 15 77 0 56 18 12 24 -59
29 -331 54 -502 55 -380 0 28 -4 104 -9 169 -6 66 -7 123 -2 128 4 4 18 -32
31 -80 26 -97 27 -101 40 -122 12 -21 24 -49 76 -185 25 -66 50 -130 55 -142
5 -13 7 -29 4 -38 -3 -8 1 -22 10 -30 8 -9 21 -34 27 -55 7 -22 25 -53 41 -69
16 -16 40 -46 53 -66 l25 -36 -37 7 c-21 3 -93 17 -159 30 -152 30 -166 30
-245 -2 -167 -68 -212 -84 -231 -84 -20 0 -20 3 -13 82 14 171 66 321 159 463
25 38 46 72 46 76 0 4 3 14 6 23 15 39 -20 9 -77 -66 -68 -90 -116 -186 -144
-288 -9 -36 -28 -102 -42 -148 l-24 -83 38 -66 c21 -36 48 -84 61 -107 13 -23
21 -33 18 -23 -17 53 -19 70 -7 63 7 -5 16 -19 21 -32 5 -13 16 -24 23 -24 19
0 50 -36 42 -49 -3 -6 0 -11 9 -11 19 0 95 -86 102 -117 4 -13 10 -23 16 -23
5 0 7 -4 4 -9 -8 -12 -111 20 -173 53 -74 40 -165 127 -241 229 -93 124 -124
180 -120 214 3 27 5 28 53 27 28 0 64 -3 80 -5 28 -4 30 -2 33 33 2 22 -1 38
-7 38 -6 0 -11 -10 -11 -22 0 -22 -3 -23 -102 -23 -96 0 -354 -7 -763 -21 -93
-3 -183 -10 -198 -16 -23 -9 -31 -8 -38 3 -8 12 -10 12 -18 0 -11 -17 -41 -7
-41 13 0 21 19 30 35 16 12 -10 15 -9 15 5 0 13 6 16 21 12 14 -4 19 -1 17 10
-2 10 -33 23 -88 38 -47 12 -166 43 -265 69 -99 26 -193 52 -208 58 -29 11
-32 30 -6 33 7 1 40 5 72 9 57 7 73 20 39 30 -20 7 -271 -27 -332 -44 -97 -27
-76 10 75 131 145 117 267 194 291 185 8 -3 82 -56 166 -119 179 -133 266
-191 403 -271 55 -33 121 -72 148 -87 46 -28 147 -50 147 -33 -1 5 -49 32
-107 59 -123 58 -351 200 -473 294 -105 82 -220 189 -220 206 0 7 45 36 99 64
117 60 93 70 234 -99 119 -144 208 -236 317 -329 103 -89 227 -174 240 -166
23 14 5 38 -67 86 -149 100 -306 238 -411 364 -42 50 -80 89 -85 87 -5 -1 -6
2 -2 8 4 6 -7 32 -24 59 -34 53 -38 71 -16 71 8 0 23 4 33 9 87 43 135 62 146
58 7 -3 17 -27 21 -53 18 -125 73 -234 171 -343 47 -53 64 -62 64 -36 0 8 -7
15 -15 15 -8 0 -15 7 -15 15 0 8 -4 15 -9 15 -18 0 -53 70 -95 192 -24 68 -47
131 -51 141 -4 9 -3 17 2 17 5 0 28 -37 51 -82 46 -92 91 -167 92 -155 0 5
-16 43 -36 85 -33 72 -75 207 -145 461 -16 58 -27 107 -24 109 2 3 36 -18 75
-46 38 -29 70 -48 70 -43 0 12 -62 66 -142 125 -38 28 -68 53 -68 58 0 13 28
9 63 -8 l32 -15 -31 28 c-18 15 -30 34 -27 40 6 17 46 -4 100 -55 23 -22 44
-37 47 -35 2 3 3 -3 2 -13 -2 -10 15 -41 37 -69 59 -74 82 -134 117 -300 31
-151 99 -398 119 -432 9 -16 10 -15 11 8 0 66 -13 117 -31 122 -25 7 -24 28 1
34 20 5 20 6 -5 39 -32 41 -32 56 -1 48 37 -9 42 22 5 35 -57 20 -64 98 -40
421 l16 205 57 -85 c31 -47 63 -92 70 -101 28 -34 110 -88 162 -108 64 -24
236 -37 267 -21 15 9 19 7 19 -5 0 -14 3 -14 30 0 30 16 34 14 31 -17 -1 -10
3 -18 9 -18 7 0 9 -13 5 -37 -12 -67 -14 -123 -5 -123 5 0 14 -10 21 -21 8
-15 8 -19 0 -15 -6 4 -11 3 -11 -3 0 -5 5 -11 11 -13 6 -2 -1 -27 -18 -61 -16
-32 -32 -55 -35 -52 -3 4 -18 -10 -33 -29 -22 -29 -34 -36 -61 -36 -19 0 -34
-5 -34 -11 0 -5 5 -7 10 -4 6 3 10 -1 10 -9 0 -22 -43 -30 -82 -17 -18 6 -97
39 -176 73 -111 48 -145 59 -155 49 -8 -8 -9 -16 -1 -29 7 -11 8 -28 2 -47 -4
-16 -6 -73 -3 -125 3 -52 7 -164 10 -249 7 -185 5 -175 30 -182 35 -10 47 1
23 21 -18 14 -22 29 -24 82 -1 35 -5 74 -8 86 -12 38 11 24 38 -22 14 -25 52
-71 84 -103 l57 -59 80 2 c44 1 83 3 86 3 4 1 10 17 14 37 18 98 60 224 170
509 26 66 51 133 57 148 8 21 16 27 29 24 22 -6 24 -1 5 18 -11 11 -9 23 14
72 83 173 190 416 210 476 13 37 26 67 29 67 9 -1 61 -79 61 -90 0 -13 13 -13
27 1 7 7 -1 27 -28 69 -22 31 -39 61 -39 66 0 5 14 22 30 38 17 16 30 34 30
40 0 6 5 5 12 -2 9 -9 7 -19 -10 -42z m-1532 -34 c-7 -7 -10 4 -9 30 1 39 1
39 10 9 5 -18 5 -33 -1 -39z m350 -16 c0 -5 -5 -10 -11 -10 -5 0 -7 5 -4 10 3
6 8 10 11 10 2 0 4 -4 4 -10z m-170 -33 c8 -14 11 -29 7 -33 -11 -11 -61 42
-52 55 10 17 28 8 45 -22z m4 -68 c25 -29 33 -49 20 -49 -13 0 -94 64 -94 75
0 34 33 23 74 -26z m1649 -768 c136 -133 170 -184 183 -274 4 -30 19 -67 39
-95 l32 -47 94 -5 c52 -3 105 -12 119 -19 25 -14 25 -14 -30 -32 -30 -10 -80
-25 -111 -33 -39 -11 -62 -24 -74 -42 -22 -35 -14 -39 26 -15 63 39 64 27 5
-105 -49 -111 -95 -193 -170 -304 l-51 -75 -6 80 c-5 74 -3 85 24 143 43 93
44 122 7 227 -35 97 -117 286 -186 430 -24 49 -40 91 -34 93 5 2 10 8 10 14 0
6 -7 8 -15 5 -10 -4 -26 18 -57 81 -24 48 -44 91 -46 97 -5 15 56 -53 220
-247 83 -98 152 -178 155 -178 8 0 -40 63 -110 145 -75 86 -75 116 0 44 52
-51 42 -24 -14 37 -212 231 -222 243 -223 257 0 16 84 -57 213 -182z m-1949
143 c5 -14 4 -15 -9 -4 -17 14 -19 20 -6 20 5 0 12 -7 15 -16z m45 -68 c-2 -2
-13 8 -23 22 l-19 27 24 -22 c12 -12 21 -24 18 -27z m773 -52 c124 -56 266
-136 250 -142 -6 -2 -20 2 -31 8 -16 8 -27 8 -42 -1 -13 -6 -47 -9 -80 -7
-110 8 -29 -33 95 -48 52 -6 57 -8 42 -20 -10 -7 -15 -17 -12 -22 3 -6 -11
-13 -32 -17 l-37 -8 28 -9 c26 -9 38 -28 17 -28 -5 0 -10 -6 -10 -14 0 -11
-12 -9 -54 8 -58 24 -220 108 -249 130 -30 23 -31 216 -2 216 8 0 60 -21 117
-46z m26 -299 c18 -13 20 -20 12 -36 -13 -23 -3 -25 21 -3 15 14 21 13 60 -10
77 -45 74 -43 61 -59 -7 -8 -10 -22 -6 -31 3 -9 1 -16 -6 -16 -6 0 -8 -5 -5
-10 4 -6 -17 -1 -46 10 -28 12 -54 19 -56 16 -10 -9 -50 39 -45 53 4 10 1 13
-11 8 -11 -4 -26 7 -49 34 -18 22 -43 52 -55 66 -13 14 -23 36 -23 49 0 23 2
23 63 -16 34 -21 72 -46 85 -55z m1341 -15 c0 -8 -7 -1 -14 15 -8 17 -14 37
-14 45 0 8 7 2 14 -15 8 -16 14 -37 14 -45z m71 -25 c14 -19 14 -19 -2 -6 -10
7 -18 18 -18 24 0 6 1 8 3 6 1 -2 9 -13 17 -24z m105 -247 c-24 -88 -66 -183
-121 -274 -35 -58 -64 -107 -64 -110 0 -6 -70 -101 -99 -133 -29 -33 -27 -14
4 31 14 20 25 40 25 43 0 3 15 29 33 58 62 98 105 182 147 287 49 124 47 120
66 120 11 0 14 -6 9 -22z m-1681 -30 c3 -7 7 -78 10 -158 6 -134 22 -465 30
-620 2 -35 1 -70 -1 -77 -7 -19 -33 -16 -33 3 0 15 -9 16 -69 10 -39 -3 -72
-2 -75 3 -9 14 48 57 91 71 21 7 42 16 46 20 5 4 4 68 -2 141 -10 126 -15 213
-27 502 -4 101 -3 117 11 117 9 0 17 -6 19 -12z m141 2 c7 -12 -32 -12 -60 0
-16 7 -13 9 17 9 20 1 40 -3 43 -9z m-665 -29 c0 -11 -4 -22 -8 -25 -14 -9
-35 12 -29 28 9 23 37 20 37 -3z m578 -73 c5 -7 31 -53 56 -101 25 -48 59
-107 75 -131 17 -24 33 -55 37 -70 5 -23 4 -25 -12 -20 -16 6 -17 5 -6 -7 17
-18 15 -30 -3 -23 -9 4 -15 0 -15 -9 0 -9 8 -17 18 -19 15 -3 14 -5 -5 -16
-19 -10 -22 -10 -21 5 1 10 -29 66 -65 124 -64 103 -67 109 -71 182 -2 41 -7
80 -11 86 -9 15 10 14 23 -1z m1068 -50 c-5 -21 11 -23 51 -7 36 15 163 18
163 4 0 -22 -131 -173 -196 -225 -38 -30 -84 -70 -102 -87 -19 -18 -36 -33
-38 -33 -6 0 -5 396 2 402 3 4 32 -4 65 -15 47 -17 59 -26 55 -39z m-666 -90
c0 -6 9 -22 21 -34 l20 -22 -35 -53 c-50 -75 -65 -94 -72 -86 -4 4 -2 13 4 20
15 18 3 30 -15 15 -7 -6 -17 -8 -20 -4 -4 4 -1 11 7 16 8 5 11 12 8 16 -4 4 9
38 29 75 34 65 53 85 53 57z m-150 -123 c0 -8 -4 -15 -10 -15 -5 0 -10 7 -10
15 0 8 5 15 10 15 6 0 10 -7 10 -15z m40 -6 c0 -5 -7 -9 -15 -9 -9 0 -12 6 -9
15 6 15 24 11 24 -6z m-90 -9 c0 -5 -4 -10 -10 -10 -5 0 -10 5 -10 10 0 6 5
10 10 10 6 0 10 -4 10 -10z m50 -87 c0 -26 -4 -34 -14 -30 -7 3 -19 0 -25 -6
-9 -9 -14 -8 -21 3 -17 27 -11 60 13 69 34 13 47 2 47 -36z m120 -3 c0 -5 -7
-10 -15 -10 -8 0 -15 5 -15 10 0 6 7 10 15 10 8 0 15 -4 15 -10z m-15 -40 c3
-5 1 -10 -4 -10 -6 0 -11 5 -11 10 0 6 2 10 4 10 3 0 8 -4 11 -10z m-180 -10
c-3 -5 -16 -10 -28 -10 -18 0 -19 2 -7 10 20 13 43 13 35 0z m-335 -32 c0 -7
-4 -19 -9 -27 -6 -9 -8 -5 -8 13 0 14 3 26 8 26 5 0 9 -6 9 -12z m348 0 c-2
-6 -10 -14 -16 -16 -7 -2 -10 2 -6 12 7 18 28 22 22 4z m42 -17 c0 -6 -9 -16
-21 -25 l-21 -14 20 -20 c13 -13 19 -28 15 -41 -8 -30 -93 -104 -149 -130 -54
-26 -66 -18 -62 38 3 31 9 37 64 65 80 40 102 61 97 89 -3 16 2 25 19 33 30
15 38 16 38 5z m40 -12 c0 -5 -4 -9 -10 -9 -5 0 -10 7 -10 16 0 8 5 12 10 9 6
-3 10 -10 10 -16z m-20 -29 c0 -5 -4 -10 -10 -10 -5 0 -10 5 -10 10 0 6 5 10
10 10 6 0 10 -4 10 -10z m876 -41 c59 -22 138 -84 128 -100 -3 -6 -23 -21 -45
-35 -22 -13 -55 -49 -75 -79 -37 -59 -48 -65 -63 -37 -14 27 -26 272 -13 272
6 0 37 -10 68 -21z m-886 -116 c0 -20 -3 -24 -11 -16 -7 7 -9 19 -6 27 10 24
17 19 17 -11z m-4 -168 c0 -14 -4 -25 -8 -25 -12 0 -20 20 -14 35 9 24 24 17
22 -10z m-1486 -211 c0 -2 -7 -4 -15 -4 -8 0 -15 4 -15 10 0 5 7 7 15 4 8 -4
15 -8 15 -10z"/>
<path d="M2381 2894 c0 -11 3 -14 6 -6 3 7 2 16 -1 19 -3 4 -6 -2 -5 -13z"/>
<path d="M1806 2157 c3 -10 9 -15 12 -12 3 3 0 11 -7 18 -10 9 -11 8 -5 -6z"/>
<path d="M1847 2155 c-9 -23 11 -28 23 -5 8 16 8 20 -4 20 -7 0 -16 -7 -19
-15z"/>
<path d="M2508 1973 c-12 -15 5 -16 57 -4 l30 7 -38 5 c-24 3 -42 0 -49 -8z"/>
<path d="M1440 1750 c0 -5 5 -10 10 -10 6 0 10 5 10 10 0 6 -4 10 -10 10 -5 0
-10 -4 -10 -10z"/>
<path d="M1421 1708 c-1 -26 11 -40 37 -44 17 -3 15 13 -3 20 -9 3 -20 16 -25
28 -9 22 -9 22 -9 -4z"/>
<path d="M1496 1701 c-4 -7 -5 -15 -2 -18 9 -9 19 4 14 18 -4 11 -6 11 -12 0z"/>
<path d="M3184 1553 c3 -10 12 -49 21 -88 14 -61 38 -153 51 -192 2 -7 8 -13
14 -13 13 0 13 3 -2 35 -9 21 -9 28 1 35 8 4 10 13 7 19 -4 6 -11 9 -16 6 -5
-3 -16 19 -25 50 -8 30 -22 80 -30 110 -9 30 -18 55 -21 55 -3 0 -3 -8 0 -17z"/>
<path d="M1210 1475 c-6 -8 -10 -19 -8 -24 1 -5 11 2 21 15 19 26 8 34 -13 9z"/>
<path d="M1165 1460 c3 -5 8 -10 11 -10 2 0 4 5 4 10 0 6 -5 10 -11 10 -5 0
-7 -4 -4 -10z"/>
<path d="M2943 1438 c-6 -7 -13 -22 -17 -32 -6 -16 -4 -17 9 -6 21 18 38 50
27 50 -5 0 -14 -6 -19 -12z"/>
<path d="M2880 1436 c0 -2 7 -9 15 -16 12 -10 15 -10 15 4 0 9 -7 16 -15 16
-8 0 -15 -2 -15 -4z"/>
<path d="M1475 1381 c41 -40 308 -151 364 -151 39 0 15 14 -84 50 -49 18 -136
55 -193 81 -57 27 -106 49 -110 49 -4 0 7 -13 23 -29z"/>
<path d="M2700 1271 c0 -5 5 -13 10 -16 6 -3 10 -2 10 4 0 5 -4 13 -10 16 -5
3 -10 2 -10 -4z"/>
<path d="M1610 1230 c0 -5 15 -10 33 -10 24 0 28 3 17 10 -20 13 -50 13 -50 0z"/>
<path d="M3565 1001 c-3 -5 -1 -12 5 -16 5 -3 10 1 10 9 0 18 -6 21 -15 7z"/>
<path d="M3579 953 c-17 -49 -18 -53 -15 -53 4 0 46 69 46 76 0 2 -5 4 -10 4
-6 0 -15 -12 -21 -27z"/>
<path d="M3540 961 c0 -5 5 -13 10 -16 6 -3 10 -2 10 4 0 5 -4 13 -10 16 -5 3
-10 2 -10 -4z"/>
<path d="M2280 1460 c0 -5 5 -10 11 -10 5 0 7 5 4 10 -3 6 -8 10 -11 10 -2 0
-4 -4 -4 -10z"/>
<path d="M2225 910 c-3 -6 1 -7 9 -4 18 7 21 14 7 14 -6 0 -13 -4 -16 -10z"/>
<path d="M3320 955 c-8 -9 -8 -15 -2 -15 12 0 26 19 19 26 -2 2 -10 -2 -17
-11z"/>
<path d="M3246 924 c-8 -21 -8 -59 1 -51 7 8 15 67 9 67 -2 0 -7 -7 -10 -16z"/>
<path d="M3679 4326 c56 -87 140 -255 166 -334 9 -29 19 -52 21 -49 8 7 -43
142 -85 225 -46 91 -123 216 -141 227 -6 3 12 -28 39 -69z"/>
<path d="M4617 4349 c-4 -16 -3 -18 9 -8 16 13 19 29 5 29 -5 0 -11 -9 -14
-21z"/>
<path d="M2462 4285 c2 -11 19 -23 43 -30 61 -18 188 -105 173 -120 -3 -4 -24
5 -45 19 -20 14 -40 26 -43 26 -3 0 20 -27 52 -61 85 -89 72 -122 -16 -40 -38
35 -40 32 -14 -21 16 -33 32 -38 126 -38 51 0 72 4 72 13 0 22 -94 136 -139
168 -44 31 -143 81 -189 94 -19 6 -23 4 -20 -10z m286 -211 c-4 -3 -12 5 -18
18 -12 22 -12 22 6 6 10 -10 15 -20 12 -24z"/>
<path d="M2386 4248 c8 -60 11 -68 29 -68 16 0 19 26 9 79 -5 22 -12 31 -25
31 -17 0 -18 -5 -13 -42z"/>
<path d="M2471 4224 c0 -11 3 -14 6 -6 3 7 2 16 -1 19 -3 4 -6 -2 -5 -13z"/>
<path d="M208 4203 c-10 -19 0 -227 11 -231 8 -3 11 28 11 107 0 61 0 114 1
118 1 11 -18 16 -23 6z"/>
<path d="M2342 4180 c0 -19 2 -27 5 -17 2 9 2 25 0 35 -3 9 -5 1 -5 -18z"/>
<path d="M4340 4095 c0 -96 3 -115 15 -115 8 0 15 8 16 18 0 9 1 61 2 114 2
87 0 98 -15 98 -16 0 -18 -12 -18 -115z"/>
<path d="M4408 4198 c19 -19 15 -66 -5 -72 -11 -3 -7 -4 7 -3 21 2 26 8 28 36
2 20 -2 37 -10 42 -20 13 -34 11 -20 -3z"/>
<path d="M4548 4139 c-2 -39 -1 -73 1 -75 2 -2 5 -23 5 -47 1 -29 5 -42 15
-42 11 0 13 22 12 109 -1 61 -4 113 -7 118 -14 22 -23 1 -26 -63z"/>
<path d="M4497 4173 c-4 -3 -7 -47 -7 -96 0 -115 11 -106 17 13 5 88 4 97 -10
83z"/>
<path d="M140 4144 c-13 -34 -13 -157 0 -149 6 3 10 27 10 53 0 26 4 64 9 85
10 42 -4 51 -19 11z"/>
<path d="M2119 4093 c-28 -26 -58 -59 -67 -75 -10 -18 -25 -28 -40 -28 -13 0
-21 -4 -18 -9 8 -13 76 10 76 25 0 8 27 41 59 74 70 71 62 81 -10 13z"/>
<path d="M290 4044 c0 -64 3 -85 13 -82 8 3 13 32 15 86 2 68 0 82 -13 82 -12
0 -15 -15 -15 -86z"/>
<path d="M4422 4060 c7 -23 7 -34 -2 -45 -17 -20 -5 -32 15 -15 18 15 20 61 3
78 -21 21 -27 13 -16 -18z"/>
<path d="M2456 4049 c-10 -6 -35 -8 -56 -5 -27 4 -41 2 -50 -9 -7 -9 -11 -17
-9 -19 2 -2 35 0 74 5 38 5 78 6 88 3 16 -5 17 -3 5 15 -14 23 -24 25 -52 10z"/>
<path d="M2530 4052 c0 -14 20 -37 20 -24 0 6 7 12 15 12 8 0 15 -5 15 -11 0
-5 5 -7 11 -4 6 4 8 9 6 11 -9 9 -67 22 -67 16z"/>
<path d="M2205 4030 c-22 -5 -58 -16 -80 -25 l-40 -15 40 6 c22 3 56 8 75 11
19 3 54 6 77 7 32 1 39 4 31 14 -12 13 -43 14 -103 2z"/>
<path d="M1925 3980 c-7 -11 19 -20 34 -10 9 5 7 9 -8 13 -12 3 -23 2 -26 -3z"/>
<path d="M2188 3973 c-10 -2 -18 -11 -18 -19 0 -10 13 -14 44 -14 50 0 96 14
96 30 0 10 -88 12 -122 3z"/>
<path d="M2910 3956 c0 -18 22 -25 78 -28 83 -3 67 26 -20 36 -47 5 -58 3 -58
-8z"/>
<path d="M856 3925 c-3 -9 -6 -22 -5 -28 0 -7 5 -1 10 12 5 13 8 26 5 28 -2 2
-6 -3 -10 -12z"/>
<path d="M1861 3929 c-52 -10 -70 -24 -54 -40 7 -7 27 -7 69 0 62 12 80 22 70
40 -8 12 -22 12 -85 0z"/>
<path d="M3877 3895 c9 -61 24 -99 17 -45 -4 25 -10 54 -15 65 -6 13 -6 6 -2
-20z"/>
<path d="M2878 3913 c7 -3 16 -2 19 1 4 3 -2 6 -13 5 -11 0 -14 -3 -6 -6z"/>
<path d="M2078 3893 c7 -3 16 -2 19 1 4 3 -2 6 -13 5 -11 0 -14 -3 -6 -6z"/>
<path d="M1988 3883 c-18 -5 -43 -65 -35 -86 2 -6 7 2 11 19 8 37 31 60 66 67
l25 4 -25 0 c-14 1 -33 -1 -42 -4z"/>
<path d="M842 3860 c0 -14 2 -19 5 -12 2 6 2 18 0 25 -3 6 -5 1 -5 -13z"/>
<path d="M1888 3863 c6 -2 18 -2 25 0 6 3 1 5 -13 5 -14 0 -19 -2 -12 -5z"/>
<path d="M1840 3850 c0 -5 5 -10 10 -10 6 0 10 5 10 10 0 6 -4 10 -10 10 -5 0
-10 -4 -10 -10z"/>
<path d="M4372 3748 c2 -80 7 -113 16 -116 10 -3 12 21 11 112 -1 94 -4 116
-16 116 -12 0 -14 -19 -11 -112z"/>
<path d="M4559 3843 c-3 -82 3 -199 11 -207 21 -21 27 12 23 117 -4 81 -9 107
-19 107 -8 0 -14 -8 -15 -17z"/>
<path d="M4440 3815 c0 -33 2 -36 15 -25 18 15 16 51 -2 58 -9 2 -13 -8 -13
-33z"/>
<path d="M240 3792 c0 -26 -6 -54 -12 -61 -10 -11 -10 -13 0 -7 9 5 12 -6 12
-43 0 -39 4 -51 15 -51 12 0 15 18 15 105 0 87 -3 105 -15 105 -11 0 -15 -12
-15 -48z"/>
<path d="M831 3815 c-1 -11 -4 -31 -6 -45 l-6 -25 11 25 c6 13 9 33 7 45 -4
19 -4 19 -6 0z"/>
<path d="M4506 3793 c-3 -21 -6 -65 -6 -98 1 -93 22 -41 24 56 1 84 -7 104
-18 42z"/>
<path d="M190 3800 c-6 -11 -13 -53 -16 -93 -5 -66 -4 -70 9 -48 8 13 12 32 9
43 -2 10 1 39 7 64 13 51 9 67 -9 34z"/>
<path d="M812 3710 c0 -14 2 -19 5 -12 2 6 2 18 0 25 -3 6 -5 1 -5 -13z"/>
<path d="M796 3613 c-8 -54 -8 -273 2 -273 4 0 8 70 9 155 0 85 0 155 -2 155
-1 0 -5 -17 -9 -37z"/>
<path d="M3933 3555 c0 -38 2 -53 4 -32 2 20 2 52 0 70 -2 17 -4 1 -4 -38z"/>
<path d="M801 3295 c-1 -56 54 -303 65 -292 3 3 -2 33 -12 68 -9 35 -25 109
-34 164 -12 66 -19 86 -19 60z"/>
<path d="M3892 3124 c-6 -22 -14 -57 -20 -79 -5 -22 -13 -49 -17 -60 l-7 -20
13 20 c14 22 51 166 44 173 -2 2 -8 -13 -13 -34z"/>
<path d="M3827 2908 c-9 -29 -15 -54 -13 -56 2 -2 12 20 21 48 9 28 15 53 13
55 -2 3 -12 -19 -21 -47z"/>
<path d="M3786 2815 c-9 -26 -7 -32 5 -12 6 10 9 21 6 23 -2 3 -7 -2 -11 -11z"/>
<path d="M3735 2711 c-100 -195 -332 -436 -542 -565 -68 -42 -83 -57 -30 -30
122 64 300 215 418 354 78 94 192 270 175 270 -3 0 -12 -13 -21 -29z"/>
<path d="M2498 493 c7 -3 16 -2 19 1 4 3 -2 6 -13 5 -11 0 -14 -3 -6 -6z"/>
<path d="M2518 293 c7 -3 16 -2 19 1 4 3 -2 6 -13 5 -11 0 -14 -3 -6 -6z"/>
<path d="M2538 13 c7 -3 16 -2 19 1 4 3 -2 6 -13 5 -11 0 -14 -3 -6 -6z"/>
</g>
</svg>
